<?xml version="1.0" encoding="UTF-8"?>
<svg width="48px" height="48px" viewBox="0 0 48 48" version="1.1" xmlns="http://www.w3.org/2000/svg" xmlns:xlink="http://www.w3.org/1999/xlink">
    <defs>
        <rect id="path-1" x="0" y="0" width="48" height="48" rx="4"></rect>
        <path d="M9.5,4.75 L8.55,4.75 C6.9825,4.75 5.7,6.175 5.7,7.6 L5.7,30.4 C5.7,31.825 6.9825,33.25 8.55,33.25 L9.5,33.25 C10.0225,33.25 10.45,32.8225 10.45,32.3 L10.45,5.7 C10.45,5.1775 10.0225,4.75 9.5,4.75 Z M29.45,4.75 L14.25,4.75 C13.7275,4.75 13.3,5.1775 13.3,5.7 L13.3,32.3 C13.3,32.8225 13.7275,33.25 14.25,33.25 L29.45,33.25 C31.0175,33.25 32.3,31.9675 32.3,30.4 L32.3,7.6 C32.3,6.0325 31.0175,4.75 29.45,4.75 Z M28.405,17.48 L25.935,19.9975 C25.8875,20.045 25.84,20.1875 25.84,20.2825 L26.41,23.845 C26.4575,24.0825 26.22,24.2725 25.9825,24.1775 L22.895,22.4675 C22.8,22.42 22.705,22.42 22.61,22.4675 L19.5225,24.1775 C19.285,24.2725 19.0475,24.0825 19.095,23.845 L19.665,20.2825 C19.665,20.1875 19.665,20.0925 19.57,19.9975 L17.1,17.48 C16.91,17.29 17.005,17.005 17.2425,16.9575 L20.6625,16.435 C20.7575,16.435 20.8525,16.34 20.9,16.245 L22.42,12.9675 C22.515,12.73 22.8475,12.73 22.9425,12.9675 L24.4625,16.245 C24.51,16.34 24.605,16.3875 24.7,16.435 L28.12,16.9575 C28.5,17.005 28.595,17.29 28.405,17.48 L28.405,17.48 Z" id="path-3"></path>
    </defs>
    <g id="Page-1" stroke="none" stroke-width="1" fill="none" fill-rule="evenodd">
        <g id="Icons-/-Standard-Icon">
            <mask id="mask-2" fill="white">
                <use xlink:href="#path-1"></use>
            </mask>
            <use id="Icon-Background" fill="#F8B156" xlink:href="#path-1"></use>
            <g id="Icons-/-z-nested-/-icon-glyphs-/-standard-/performance" mask="url(#mask-2)">
                <g transform="translate(5.000000, 5.000000)">
                    <mask id="mask-4" fill="white">
                        <use xlink:href="#path-3"></use>
                    </mask>
                    <use id="Mask" stroke="none" fill="#FFFFFF" fill-rule="evenodd" xlink:href="#path-3"></use>
                </g>
            </g>
        </g>
    </g>
</svg>